Coordinates
version=1
nRows=29
nColumns=24
inDegrees=yes

Units are S.I. units (second, meters, Newtons, ...)
Angles are in degrees.

endheader
time	pelvis_tilt	pelvis_list	pelvis_rotation	pelvis_tx	pelvis_ty	pelvis_tz	hip_flexion_r	hip_adduction_r	hip_rotation_r	knee_angle_r	ankle_angle_r	subtalar_angle_r	mtp_angle_r	hip_flexion_l	hip_adduction_l	hip_rotation_l	knee_angle_l	ankle_angle_l	subtalar_angle_l	mtp_angle_l	lumbar_extension	lumbar_bending	lumbar_rotation
      0.47100000	     -7.74285338	      0.57118170	      5.29578038	     -0.73527679	      0.89147231	      0.32056161	     35.75600566	     -0.43044034	     -7.41662630	    -18.31747320	      1.27829238	      0.33206152	      3.16513466	     -9.22309287	      1.59071750	      2.26734310	     -6.83584537	     12.89059287	      0.60095387	      8.84324445	     -0.22817482	     -3.41728432	     -9.39640511
      0.47516667	     -7.79505016	      0.57105544	      5.38799194	     -0.72941698	      0.89019121	      0.32073638	     35.68588497	     -0.33869180	     -7.10322430	    -17.97646520	      1.24003274	      0.01726555	      3.12215336	     -9.26954537	      1.51496212	      2.31631899	     -7.45746920	     13.09968074	      0.80427597	      8.89679354	     -0.13454565	     -3.41096866	     -9.41594290
      0.47933333	     -7.83993908	      0.55220074	      5.46485076	     -0.72354475	      0.88893358	      0.32095135	     35.62133436	     -0.22093790	     -6.80003117	    -17.75959407	      1.19518111	     -0.32919241	      3.07290837	     -9.26837024	      1.41371871	      2.25111500	     -8.19602415	     13.32666923	      1.14769662	      9.01388811	     -0.06157947	     -3.36092793	     -9.41355007
      0.48350000	     -7.90504136	      0.52762806	      5.54381232	     -0.71764219	      0.88769474	      0.32117941	     35.57316796	     -0.09937212	     -6.50857810	    -17.62480671	      1.08469637	     -0.71063424	      3.04108686	     -9.24017823	      1.31062186	      2.25546536	     -8.94541010	     13.52357331	      1.40376913	      9.13834791	      0.06484845	     -3.33153351	     -9.38440400
      0.48766667	     -7.96544330	      0.48611193	      5.60785339	     -0.71171820	      0.88649656	      0.32145064	     35.53088822	      0.04817041	     -6.22610034	    -17.60007168	      0.93745497	     -1.14665239	      3.01832107	     -9.17668265	      1.18644390	      2.18896500	     -9.77318166	     13.69521133	      1.71160943	      9.30952777	      0.17891744	     -3.26686739	     -9.33565971
      0.49183333	     -7.99470865	      0.41877576	      5.65356453	     -0.70576193	      0.88536476	      0.32176524	     35.46678307	      0.23152736	     -5.96932058	    -17.68040180	      0.78705145	     -1.59832660	      3.00752961	     -9.10203610	      1.02429685	      2.02167548	    -10.70038733	     13.90151745	      2.15880350	      9.70810119	      0.24832476	     -3.15198398	     -9.26847932
      0.49600000	     -8.09723104	      0.37288313	      5.70034232	     -0.69981291	      0.88419208	      0.32208954	     35.49209954	      0.38806125	     -5.71013788	    -17.85506614	      0.54580103	     -2.09922422	      3.01132157	     -8.94591736	      0.90679412	      1.99825578	    -11.62008020	     13.93648458	      2.32267531	      9.95169243	      0.43377135	     -3.09442554	     -9.18432714
      0.50016667	     -8.12994631	      0.27944342	      5.72028505	     -0.69380383	      0.88313719	      0.32247423	     35.45152638	      0.61079179	     -5.47811715	    -18.11955010	      0.32783122	     -2.64982724	      3.05632142	     -8.81558996	      0.71719905	      1.80640935	    -12.65002981	     14.08569020	      2.74701667	     10.49318073	      0.51878843	     -2.93958685	     -9.06630397
      0.50433333	     -8.25356463	      0.22620520	      5.75881624	     -0.68783689	      0.88201618	      0.32282871	     35.53419576	      0.76838073	     -5.27629924	    -18.50061211	      0.10979632	     -3.10021493	      3.07356370	     -8.57951568	      0.60518992	      1.85896854	    -13.68530307	     14.07456208	      2.75780499	     10.68427060	      0.72838387	     -2.86658992	     -8.95612346
      0.50850000	     -8.27570589	      0.10274411	      5.75116660	     -0.68176653	      0.88108365	      0.32331379	     35.48777439	      1.04090950	     -5.05213305	    -18.88612178	     -0.14759245	     -3.72245631	      3.17708368	     -8.38579721	      0.37131512	      1.55913392	    -14.85651041	     14.10239032	      3.25340769	     11.42096484	      0.83262107	     -2.68527706	     -8.78286940
      0.51266667	     -8.41121816	      0.05355285	      5.76030337	     -0.67577761	      0.88003902	      0.32371520	     35.61839598	      1.19877596	     -4.88487081	    -19.44156475	     -0.33538029	     -4.15272039	      3.20686914	     -8.07295191	      0.27341458	      1.59133438	    -16.01775115	     13.97822896	      3.19471986	     11.63758547	      1.06704192	     -2.61061288	     -8.65172863
      0.51683333	     -8.43007740	     -0.09423637	      5.71931491	     -0.66966873	      0.87921048	      0.32428894	     35.59057096	      1.51084544	     -4.67611924	    -19.95508551	     -0.56318499	     -4.77517153	      3.37024239	     -7.81579151	      0.00885244	      1.24789493	    -17.31579750	     13.87223078	      3.67764377	     12.62597502	      1.16436238	     -2.39847522	     -8.40364357
      0.52100000	     -8.56774534	     -0.14824495	      5.69659863	     -0.66366235	      0.87825916	      0.32474241	     35.75949634	      1.67966109	     -4.53503502	    -20.66267291	     -0.64895621	     -5.12904750	      3.41192430	     -7.43175723	     -0.08434689	      1.26638068	    -18.60934565	     13.63678014	      3.53045726	     12.88115781	      1.39899401	     -2.31236875	     -8.27074509
      0.52516667	     -8.62292096	     -0.27863367	      5.66717551	     -0.65757560	      0.87749974	      0.32527441	     35.80823865	      1.93763125	     -4.43598025	    -21.32458243	     -0.77835203	     -5.56913066	      4.41974254	     -7.05901130	     -0.31439429	      1.02650374	    -20.02656185	     13.31902136	      3.68654029	     18.95973157	      1.55215470	     -2.12582818	     -8.15081381
      0.52933333	     -8.70050653	     -0.34720054	      5.58066811	     -0.65150329	      0.87675157	      0.32583787	     35.92190444	      2.15963402	     -4.25891034	    -22.10865823	     -0.71852706	     -5.92178076	      4.42215687	     -6.68200038	     -0.43020609	      0.92456033	    -21.41884925	     12.92419546	      3.58764152	     19.00611180	      1.72155706	     -2.00049254	     -7.88529376
      0.53350000	     -8.76432794	     -0.43888999	      5.50419266	     -0.64545013	      0.87608900	      0.32641863	     36.01632688	      2.39206269	     -4.14109345	    -22.89575872	     -0.68923719	     -6.24870669	      4.43192502	     -6.23759917	     -0.59422407	      0.72868381	    -22.95678751	     12.53199948	      3.62288141	     19.14277281	      1.87712440	     -1.86597102	     -7.59703254
      0.53766667	     -8.77935391	     -0.57046897	      5.41238812	     -0.63935651	      0.87556522	      0.32703168	     36.04075362	      2.67748948	     -4.01758917	    -23.66782254	     -0.52744644	     -6.56409083	      4.47097800	     -5.80582537	     -0.81688802	      0.47634599	    -24.55455277	     12.08747010	      3.73701047	     19.66679004	      1.97343185	     -1.65025574	     -7.26149223
      0.54183333	     -8.84747631	     -0.66145689	      5.31467352	     -0.63329399	      0.87502970	      0.32760032	     36.14321594	      2.90185850	     -3.92884591	    -24.50375405	     -0.33139678	     -6.74143420	      4.48998181	     -5.29009775	     -0.96467348	      0.32120985	    -26.18925459	     11.50038801	      3.56233045	     19.85489131	      2.14503275	     -1.49662778	     -7.09405733
      0.54600000	     -8.85278656	     -0.79518162	      5.20022819	     -0.62720743	      0.87465047	      0.32821847	     36.14949906	      3.18749783	     -3.82701687	    -25.28883400	     -0.07390650	     -6.96794975	      4.67711962	     -4.79451544	     -1.18599543	      0.07094923	    -27.88950965	     10.83155230	      3.42938837	     23.74057433	      2.23598444	     -1.26813752	     -6.80375700
      0.55016667	     -8.85091458	     -0.91664252	      5.08203964	     -0.62112710	      0.87436911	      0.32879972	     36.13799619	      3.44954404	     -3.74841275	    -26.07436743	      0.29668610	     -7.03505083	      4.68938388	     -4.27483318	     -1.38363884	     -0.14065765	    -29.62753875	     10.06963724	      3.27308386	     23.76400989	      2.31049221	     -1.04876582	     -6.62621095
      0.55433333	     -8.84614109	     -1.03773669	      4.95787465	     -0.61508888	      0.87412886	      0.32939362	     36.11799002	      3.70538579	     -3.70517294	    -26.85070210	      0.67124958	     -7.07447663	      4.69921683	     -3.69827263	     -1.59682015	     -0.41410322	    -31.46428715	      9.31859942	      3.13505440	     23.83644607	      2.39226410	     -0.85526382	     -6.34390311
      0.55850000	     -8.80791032	     -1.18100067	      4.82310370	     -0.60904017	      0.87402471	      0.32998009	     36.02542466	      3.98910318	     -3.65479269	    -27.55963429	      1.09333047	     -7.08970871	      4.70801360	     -3.12898032	     -1.83843788	     -0.69281806	    -33.32334944	      8.46107700	      2.94249464	     23.93349105	      2.42387800	     -0.61041448	     -6.07859814
      0.56266667	     -8.74952862	     -1.33595114	      4.68330294	     -0.60300586	      0.87401994	      0.33057121	     35.88223906	      4.28444182	     -3.61460622	    -28.21413739	      1.54472214	     -7.07539942	      4.71449629	     -2.54526297	     -2.10345101	     -0.98794177	    -35.21949328	      7.54559356	      2.71513318	     24.04313294	      2.43576458	     -0.34982606	     -5.81898968
      0.56683333	     -8.67012166	     -1.50299631	      4.53965799	     -0.59699781	      0.87411190	      0.33115149	     35.68692743	      4.58921457	     -3.59017330	    -28.81177718	      2.02090196	     -7.02366279	      4.71713647	     -1.94781562	     -2.39239507	     -1.30091744	    -37.14856474	      6.56689018	      2.46265485	     24.16985515	      2.41462238	     -0.06408509	     -5.54815416
      0.57100000	     -8.54535798	     -1.67327803	      4.39490408	     -0.59100774	      0.87436014	      0.33171077	     35.40105560	      4.90003574	     -3.56353191	    -29.33026529	      2.52802808	     -7.03419432	      4.72747647	     -1.37302865	     -2.69602862	     -1.62736913	    -39.08207928	      5.51401669	      2.15556165	     24.20336203	      2.32636822	      0.24006077	     -5.40062946
      0.57516667	     -8.45599315	     -1.86556801	      4.24379708	     -0.58506460	      0.87460848	      0.33227395	     35.12769514	      5.22267175	     -3.56342241	    -29.78992259	      3.01327420	     -6.85281941	      4.72090673	     -0.71975158	     -3.03131625	     -1.96177641	    -41.05251837	      4.43130900	      1.82895705	     24.33173263	      2.29073960	      0.55221261	     -5.02123119
      0.57933333	     -8.32355054	     -2.06472710	      4.09702031	     -0.57914243	      0.87500605	      0.33283684	     34.75306780	      5.55946418	     -3.54190430	    -30.13744367	      3.51078532	     -6.78125630	      4.72650754	     -0.09524813	     -3.39266061	     -2.31041447	    -43.01124093	      3.30993504	      1.48004677	     24.35652359	      2.18938076	      0.86467990	     -4.85858311
      0.58350000	     -8.18671724	     -2.27302513	      3.95537213	     -0.57326030	      0.87547762	      0.33339052	     34.34336909	      5.89678342	     -3.54939016	    -30.42297459	      3.99420671	     -6.66070562	      4.73163717	      0.55361984	     -3.77710122	     -2.66435554	    -44.96917245	      2.16034686	      1.08861254	     24.35832935	      2.08836730	      1.19952087	     -4.64771707
      0.58766667	     -8.03553367	     -2.48632030	      3.81060902	     -0.56741949	      0.87603080	      0.33391504	     33.88834408	      6.23058881	     -3.58321303	    -30.64389946	      4.44774101	     -6.48542076	      4.72925763	      1.20105414	     -4.17371525	     -3.02012937	    -46.90689311	      1.01648340	      0.62411019	     24.32537423	      1.96389899	      1.53614191	     -4.35767214
